<?xml version="1.0" encoding="UTF-8" standalone="no"?>
<svg
   xmlns:dc="http://purl.org/dc/elements/1.1/"
   xmlns:cc="http://creativecommons.org/ns#"
   xmlns:rdf="http://www.w3.org/1999/02/22-rdf-syntax-ns#"
   xmlns:svg="http://www.w3.org/2000/svg"
   xmlns="http://www.w3.org/2000/svg"
   xmlns:sodipodi="http://sodipodi.sourceforge.net/DTD/sodipodi-0.dtd"
   xmlns:inkscape="http://www.inkscape.org/namespaces/inkscape"
   width="180mm"
   height="45mm"
   viewBox="0 0 180 45"
   version="1.1"
   id="svg967"
   inkscape:version="1.0.1 (1.0.1+r75)"
   sodipodi:docname="logo-dashboard.svg">
  <defs
     id="defs961" />
  <sodipodi:namedview
     id="base"
     pagecolor="#ffffff"
     bordercolor="#666666"
     borderopacity="1.0"
     inkscape:pageopacity="0.0"
     inkscape:pageshadow="2"
     inkscape:zoom="3.9684498"
     inkscape:cx="367.98235"
     inkscape:cy="106.60754"
     inkscape:document-units="mm"
     inkscape:current-layer="layer1"
     inkscape:document-rotation="0"
     showgrid="false"
     showguides="true"
     inkscape:guide-bbox="true"
     inkscape:window-width="3840"
     inkscape:window-height="1537"
     inkscape:window-x="0"
     inkscape:window-y="30"
     inkscape:window-maximized="1">
    <sodipodi:guide
       position="180,297"
       orientation="-1,0"
       id="guide1550"
       inkscape:label=""
       inkscape:locked="false"
       inkscape:color="rgb(0,0,255)" />
    <sodipodi:guide
       position="0,252"
       orientation="0,1"
       id="guide1552"
       inkscape:label=""
       inkscape:locked="false"
       inkscape:color="rgb(0,0,255)" />
  </sodipodi:namedview>
  <metadata
     id="metadata964">
    <rdf:RDF>
      <cc:Work
         rdf:about="">
        <dc:format>image/svg+xml</dc:format>
        <dc:type
           rdf:resource="http://purl.org/dc/dcmitype/StillImage" />
        <dc:title></dc:title>
      </cc:Work>
    </rdf:RDF>
  </metadata>
  <g
     inkscape:label="Capa 1"
     inkscape:groupmode="layer"
     id="layer1">
    <g
       aria-label="mybrary"
       transform="translate(447.16224,63.241964)"
       id="text1005"
       style="font-size:3.52778px;line-height:1.25;font-family:Bart;-inkscape-font-specification:Bart;letter-spacing:0px;word-spacing:0px;white-space:pre;shape-inside:url(#rect1007);fill:#bcbcbc;fill-opacity:1;stroke:#ffffff;stroke-opacity:1">
      <path
         d="m -421.73047,-31.078759 q 0,1.5875 -1.5875,1.5875 -1.5875,0 -1.5875,-1.5875 v -14.2875 q 0,-1.312333 -0.93133,-2.243666 -0.93134,-0.931333 -2.24367,-0.931333 -1.31233,0 -2.24367,0.931333 -0.93133,0.931333 -0.93133,2.243666 v 14.2875 q 0,1.5875 -1.5875,1.5875 -1.5875,0 -1.5875,-1.5875 v -14.2875 q 0,-1.312333 -0.93133,-2.243666 -0.93134,-0.931333 -2.24367,-0.931333 -1.31233,0 -2.24367,0.931333 -0.93133,0.931333 -0.93133,2.243666 v 14.2875 q 0,1.5875 -1.5875,1.5875 -1.5875,0 -1.5875,-1.5875 v -19.049999 q 0,-1.5875 1.5875,-1.5875 1.10067,0 1.4605,0.9525 1.50283,-0.9525 3.302,-0.9525 2.8575,0 4.7625,2.159 1.905,-2.159 4.7625,-2.159 2.62467,0 4.48733,1.862666 1.86267,1.862667 1.86267,4.487333 z"
         style="font-style:normal;font-variant:normal;font-weight:normal;font-stretch:normal;font-size:50.8px;font-family:'Monofur Nerd Font';-inkscape-font-specification:'Monofur Nerd Font';fill:#bcbcbc;fill-opacity:1;stroke:#ffffff;stroke-opacity:1"
         id="path1037" />
      <path
         d="m -398.44714,-50.128758 v 20.637499 q 0,3.937 -2.794,6.731 -2.794,2.794 -6.731,2.794 -2.49766,0 -4.72016,-1.27 -2.32834,-1.312333 -3.51367,-3.450167 -0.23283,-0.4445 -0.23283,-0.8255 0,-0.634999 0.508,-1.121833 0.508,-0.486833 1.143,-0.486833 0.71966,0 1.3335,0.8255 2.37066,3.153833 5.48216,3.153833 2.62467,0 4.48734,-1.862667 1.86266,-1.862666 1.86266,-4.487333 v -2.434166 q -2.70933,2.434166 -6.35,2.434166 -3.937,0 -6.731,-2.794 -2.794,-2.794 -2.794,-6.731 v -11.112499 q 0,-1.5875 1.5875,-1.5875 1.5875,0 1.5875,1.5875 v 11.112499 q 0,2.624667 1.86267,4.487334 1.86267,1.862666 4.48733,1.862666 2.62467,0 4.48734,-1.862666 1.86266,-1.862667 1.86266,-4.466167 v -11.133666 q 0,-1.5875 1.5875,-1.5875 1.5875,0 1.5875,1.5875 z"
         style="font-style:normal;font-variant:normal;font-weight:normal;font-stretch:normal;font-size:50.8px;font-family:'Monofur Nerd Font';-inkscape-font-specification:'Monofur Nerd Font';fill:#bcbcbc;fill-opacity:1;stroke:#ffffff;stroke-opacity:1"
         id="path1039" />
      <path
         d="m -370.93047,-40.603759 q 0,4.5085 -3.02683,7.768167 -3.09034,3.344333 -7.5565,3.344333 -4.46617,0 -7.5565,-3.344333 -3.02684,-3.259667 -3.02684,-7.768167 v -19.049999 q 0,-1.5875 1.5875,-1.5875 1.5875,0 1.5875,1.5875 v 11.1125 q 3.06917,-3.175 7.40834,-3.175 4.46616,0 7.5565,3.344333 3.02683,3.259666 3.02683,7.768166 z m -3.175,0 q 0,-3.196166 -2.07433,-5.5245 -2.159,-2.412999 -5.334,-2.412999 -3.15384,0 -5.31284,2.412999 -2.07433,2.328334 -2.0955,5.5245 0,3.196167 2.0955,5.5245 2.159,2.413 5.31284,2.413 3.15383,0 5.334,-2.413 2.07433,-2.328333 2.07433,-5.5245 z"
         style="font-style:normal;font-variant:normal;font-weight:normal;font-stretch:normal;font-size:50.8px;font-family:'Monofur Nerd Font';-inkscape-font-specification:'Monofur Nerd Font';fill:#bcbcbc;fill-opacity:1;stroke:#ffffff;stroke-opacity:1"
         id="path1041" />
      <path
         d="m -345.50931,-46.572759 q 0,0.635 -0.508,1.121834 -0.48683,0.465666 -1.143,0.465666 -0.59266,0 -1.16416,-0.613833 -2.921,-2.942166 -6.20184,-2.942166 -3.28083,0 -5.60916,2.328333 -2.32834,2.328333 -2.32834,5.609166 v 9.525 q 0,1.5875 -1.5875,1.5875 -1.5875,0 -1.5875,-1.5875 v -19.049999 q 0,-1.5875 1.5875,-1.5875 1.2065,0 1.524,1.185333 0.0847,0.381 0.0635,2.159 3.25967,-3.344333 7.9375,-3.344333 2.413,0 4.80484,1.100666 2.54,1.143 3.81,3.026833 0.40216,0.5715 0.40216,1.016 z"
         style="font-style:normal;font-variant:normal;font-weight:normal;font-stretch:normal;font-size:50.8px;font-family:'Monofur Nerd Font';-inkscape-font-specification:'Monofur Nerd Font';fill:#bcbcbc;fill-opacity:1;stroke:#ffffff;stroke-opacity:1"
         id="path1043" />
      <path
         d="m -321.1888,-31.078759 q 0,1.5875 -1.5875,1.5875 -1.62984,0 -1.5875,-2.2225 -3.13267,2.2225 -7.40834,2.2225 -3.91583,0 -7.00616,-1.9685 -3.57717,-2.286 -3.57717,-5.969 0,-3.661833 3.57717,-5.969 3.09033,-1.9685 7.00616,-1.9685 4.27567,0 7.40834,2.2225 v -0.635 q 0,-0.9525 -0.65617,-1.883833 -1.9685,-2.878666 -6.75217,-2.878666 -2.75166,0 -5.43983,1.566333 -0.55033,0.3175 -0.9525,0.3175 -0.635,0 -1.12183,-0.486834 -0.46567,-0.508 -0.46567,-1.164166 0,-1.545167 3.32317,-2.6035 2.58233,-0.804333 4.65666,-0.804333 3.89467,0 7.00617,1.9685 3.57717,2.285999 3.57717,5.968999 z m -3.175,-6.35 q 0,-1.502833 -1.43934,-2.772833 -1.2065,-1.058333 -2.8575,-1.545167 -1.43933,-0.4445 -3.1115,-0.4445 -4.91066,0 -6.83683,3.005667 -0.5715,0.889 -0.5715,1.756833 0,0.867834 0.5715,1.756834 1.92617,3.005666 6.83683,3.005666 1.67217,0 3.1115,-0.4445 1.67217,-0.486833 2.8575,-1.545166 1.43934,-1.27 1.43934,-2.772834 z"
         style="font-style:normal;font-variant:normal;font-weight:normal;font-stretch:normal;font-size:50.8px;font-family:'Monofur Nerd Font';-inkscape-font-specification:'Monofur Nerd Font';fill:#bcbcbc;fill-opacity:1;stroke:#ffffff;stroke-opacity:1"
         id="path1045" />
      <path
         d="m -294.7093,-46.572759 q 0,0.635 -0.508,1.121834 -0.48684,0.465666 -1.143,0.465666 -0.59267,0 -1.16417,-0.613833 -2.921,-2.942166 -6.20183,-2.942166 -3.28084,0 -5.60917,2.328333 -2.32833,2.328333 -2.32833,5.609166 v 9.525 q 0,1.5875 -1.5875,1.5875 -1.5875,0 -1.5875,-1.5875 v -19.049999 q 0,-1.5875 1.5875,-1.5875 1.2065,0 1.524,1.185333 0.0847,0.381 0.0635,2.159 3.25966,-3.344333 7.9375,-3.344333 2.413,0 4.80483,1.100666 2.54,1.143 3.81,3.026833 0.40217,0.5715 0.40217,1.016 z"
         style="font-style:normal;font-variant:normal;font-weight:normal;font-stretch:normal;font-size:50.8px;font-family:'Monofur Nerd Font';-inkscape-font-specification:'Monofur Nerd Font';fill:#bcbcbc;fill-opacity:1;stroke:#ffffff;stroke-opacity:1"
         id="path1047" />
      <path
         d="m -271.44714,-50.128758 v 20.637499 q 0,3.937 -2.794,6.731 -2.794,2.794 -6.731,2.794 -2.49767,0 -4.72017,-1.27 -2.32833,-1.312333 -3.51366,-3.450167 -0.23284,-0.4445 -0.23284,-0.8255 0,-0.634999 0.508,-1.121833 0.508,-0.486833 1.143,-0.486833 0.71967,0 1.3335,0.8255 2.37067,3.153833 5.48217,3.153833 2.62466,0 4.48733,-1.862667 1.86267,-1.862666 1.86267,-4.487333 v -2.434166 q -2.70934,2.434166 -6.35,2.434166 -3.937,0 -6.731,-2.794 -2.794,-2.794 -2.794,-6.731 v -11.112499 q 0,-1.5875 1.5875,-1.5875 1.5875,0 1.5875,1.5875 v 11.112499 q 0,2.624667 1.86267,4.487334 1.86266,1.862666 4.48733,1.862666 2.62466,0 4.48733,-1.862666 1.86267,-1.862667 1.86267,-4.466167 v -11.133666 q 0,-1.5875 1.5875,-1.5875 1.5875,0 1.5875,1.5875 z"
         style="font-style:normal;font-variant:normal;font-weight:normal;font-stretch:normal;font-size:50.8px;font-family:'Monofur Nerd Font';-inkscape-font-specification:'Monofur Nerd Font';fill:#bcbcbc;fill-opacity:1;stroke:#ffffff;stroke-opacity:1"
         id="path1049" />
    </g>
  </g>
</svg>
